<<<<<<< HEAD
version https://git-lfs.github.com/spec/v1
oid sha256:7120f2d187fd4a9dd606a455c6dd7a5fb990d4f69e152ca4b4900db944ffeaba
size 407
=======
# Blender v3.6.0 OBJ File: 'AllModules_Unreal.blend'
# www.blender.org
mtllib Decal_2.mtl
o Decal_2_Plane.012
v 0.401897 0.000000 0.636267
v -0.401897 0.000000 0.636267
v 0.401897 0.000000 -0.636267
v -0.401897 0.000000 -0.636267
vt 0.565176 0.899985
vt 0.617156 0.899985
vt 0.617156 0.982277
vt 0.565176 0.982277
vn 0.0000 1.0000 0.0000
usemtl M_Decal_White
s off
f 2/1/1 1/2/1 3/3/1 4/4/1
>>>>>>> parent of 9c6b686 (初次签入)
