<<<<<<< HEAD
version https://git-lfs.github.com/spec/v1
oid sha256:5f95f1f2467b206210a840e3af69aacfa239928f238481ab6fdc855f316df0ec
size 545
=======
# Blender v3.6.0 OBJ File: 'AllModules_Unreal.blend'
# www.blender.org
mtllib Decal_Logo.mtl
o Decal_Logo_Plane.027
v -1.165929 0.000000 0.631056
v -1.165929 0.000000 0.155249
v 1.126260 0.000000 0.631055
v 1.126260 0.000000 0.155247
v 0.329465 0.000000 -0.786304
v -0.250125 0.000000 -0.786304
vt 0.000000 0.737655
vt 0.424271 0.737655
vt 0.424271 0.825724
vt 0.000000 0.825724
vt 0.276789 1.000000
vt 0.169510 1.000000
vn 0.0000 1.0000 0.0000
usemtl M_Decal_White
s off
f 1/1/1 3/2/1 4/3/1 2/4/1
f 2/4/1 4/3/1 5/5/1 6/6/1
>>>>>>> parent of 9c6b686 (初次签入)
