<<<<<<< HEAD
version https://git-lfs.github.com/spec/v1
oid sha256:55b8a208895d53cfcc9b94442669a7d6ee08fd0dafa7e6b952e3deaa8680fa66
size 407
=======
# Blender v3.6.0 OBJ File: 'AllModules_Unreal.blend'
# www.blender.org
mtllib Decal_8.mtl
o Decal_8_Plane.007
v -0.416915 0.000000 0.636267
v -0.416916 0.000000 -0.636266
v 0.416915 0.000000 0.636266
v 0.416915 0.000000 -0.636266
vt 0.925280 0.982277
vt 0.871358 0.982277
vt 0.871358 0.899985
vt 0.925280 0.899985
vn 0.0000 1.0000 0.0000
usemtl M_Decal_White
s off
f 4/1/1 2/2/1 1/3/1 3/4/1
>>>>>>> parent of 9c6b686 (初次签入)
