<<<<<<< HEAD
version https://git-lfs.github.com/spec/v1
oid sha256:9f04b7081c07c118653e93637678cc19c1b74042adf656b03d042bb2e86b2b5a
size 407
=======
# Blender v3.6.0 OBJ File: 'AllModules_Unreal.blend'
# www.blender.org
mtllib Decal_1.mtl
o Decal_1_Plane.009
v -0.288026 0.000000 0.636267
v 0.288026 0.000000 0.636267
v -0.288026 0.000000 -0.636267
v 0.288026 0.000000 -0.636267
vt 0.527924 0.899985
vt 0.565176 0.899985
vt 0.565176 0.982277
vt 0.527924 0.982277
vn 0.0000 1.0000 0.0000
usemtl M_Decal_White
s off
f 1/1/1 2/2/1 4/3/1 3/4/1
>>>>>>> parent of 9c6b686 (初次签入)
