<<<<<<< HEAD
version https://git-lfs.github.com/spec/v1
oid sha256:08e4b7ab647d4b2bdf209ad93f5bbf0117de7c69d47828fa565bdc64386e12bc
size 407
=======
# Blender v3.6.0 OBJ File: 'AllModules_Unreal.blend'
# www.blender.org
mtllib Decal_3.mtl
o Decal_3_Plane.020
v 0.388909 0.000000 0.636267
v -0.388908 0.000000 0.636267
v 0.388908 0.000000 -0.636267
v -0.388909 0.000000 -0.636267
vt 0.617156 0.899985
vt 0.667456 0.899985
vt 0.667456 0.982277
vt 0.617156 0.982277
vn 0.0000 1.0000 0.0000
usemtl M_Decal_White
s off
f 2/1/1 1/2/1 3/3/1 4/4/1
>>>>>>> parent of 9c6b686 (初次签入)
