<<<<<<< HEAD
version https://git-lfs.github.com/spec/v1
oid sha256:64d958fbba695a6ef97b42f4a627de3174c924312b5e7e819ff8a805b70d31fd
size 407
=======
# Blender v3.6.0 OBJ File: 'AllModules_Unreal.blend'
# www.blender.org
mtllib Decal_4.mtl
o Decal_4_Plane.005
v -0.407115 0.000000 0.636267
v 0.407116 0.000000 0.636267
v -0.407115 0.000000 -0.636267
v 0.407115 0.000000 -0.636267
vt 0.667456 0.899985
vt 0.720110 0.899985
vt 0.720110 0.982277
vt 0.667456 0.982277
vn 0.0000 1.0000 0.0000
usemtl M_Decal_White
s off
f 1/1/1 2/2/1 4/3/1 3/4/1
>>>>>>> parent of 9c6b686 (初次签入)
