<<<<<<< HEAD
version https://git-lfs.github.com/spec/v1
oid sha256:28d8baa750c989fd12f73b245c2fe282226e3de62168cccdf9dcdae71f006718
size 407
=======
# Blender v3.6.0 OBJ File: 'AllModules_Unreal.blend'
# www.blender.org
mtllib Decal_X.mtl
o Decal_X_Plane.017
v -0.432386 0.000000 -0.606823
v -0.432386 0.000000 0.606824
v 0.432386 0.000000 -0.606823
v 0.432386 0.000000 0.606824
vt 0.535639 0.899985
vt 0.535639 0.821501
vt 0.591562 0.821501
vt 0.591562 0.899985
vn 0.0000 1.0000 0.0000
usemtl M_Decal_White
s off
f 1/1/1 2/2/1 4/3/1 3/4/1
>>>>>>> parent of 9c6b686 (初次签入)
