<<<<<<< HEAD
version https://git-lfs.github.com/spec/v1
oid sha256:009002e71d1378683bf2f94809bec5f151ed59be01274ad4f19fd744920b4c7b
size 407
=======
# Blender v3.6.0 OBJ File: 'AllModules_Unreal.blend'
# www.blender.org
mtllib Decal_V.mtl
o Decal_V_Plane.018
v -0.432984 0.000000 -0.606823
v -0.432983 0.000000 0.606824
v 0.432983 0.000000 -0.606823
v 0.432984 0.000000 0.606824
vt 0.637998 0.899985
vt 0.637998 0.821501
vt 0.693998 0.821501
vt 0.693998 0.899985
vn 0.0000 1.0000 0.0000
usemtl M_Decal_White
s off
f 1/1/1 2/2/1 4/3/1 3/4/1
>>>>>>> parent of 9c6b686 (初次签入)
