<<<<<<< HEAD
version https://git-lfs.github.com/spec/v1
oid sha256:b4d509cac09d54ecab5949b6ce6c159732b053acf71b6650b00985a04c2660de
size 407
=======
# Blender v3.6.0 OBJ File: 'AllModules_Unreal.blend'
# www.blender.org
mtllib Decal_5.mtl
o Decal_5_Plane.022
v -0.384123 0.000000 0.636267
v 0.384124 0.000000 0.636267
v -0.384124 0.000000 -0.636267
v 0.384124 0.000000 -0.636267
vt 0.720110 0.899985
vt 0.769791 0.899985
vt 0.769791 0.982277
vt 0.720110 0.982277
vn 0.0000 1.0000 0.0000
usemtl M_Decal_White
s off
f 1/1/1 2/2/1 4/3/1 3/4/1
>>>>>>> parent of 9c6b686 (初次签入)
