<<<<<<< HEAD
version https://git-lfs.github.com/spec/v1
oid sha256:e70d9f86eba328ef4b43c4fabaf9404d36e438257aa6b3bc3ab9b3f6932aa8b6
size 429
=======
# Blender v3.6.0 OBJ File: 'AllModules_Unreal.blend'
# www.blender.org
mtllib Decal_Logo_Letters.mtl
o Decal_Logo_Letters_Plane.055
v -1.452433 0.000000 -0.288963
v 1.449813 0.000000 -0.288963
v -1.447193 0.000000 0.280089
v 1.449813 0.000000 0.297836
vt 0.026780 0.159146
vt 0.027750 0.053818
vt 0.563969 0.050533
vt 0.563969 0.159146
vn 0.0000 1.0000 0.0000
usemtl M_Decal_White
s off
f 1/1/1 3/2/1 4/3/1 2/4/1
>>>>>>> parent of 9c6b686 (初次签入)
