<<<<<<< HEAD
version https://git-lfs.github.com/spec/v1
oid sha256:17d83e73b6fcb9f97a7e786f139719be2e779bc6bec35057eff88d1545712d02
size 413
=======
# Blender v3.6.0 OBJ File: 'AllModules_Unreal.blend'
# www.blender.org
mtllib Decal_Sign.mtl
o Decal_Sign_Plane.049
v -0.344710 0.000000 -0.307786
v 0.344709 0.000000 -0.307786
v -0.344710 0.000000 0.307786
v 0.344711 0.000000 0.307786
vt 0.809030 0.310112
vt 0.936637 0.310112
vt 0.936637 0.424051
vt 0.809030 0.424051
vn 0.0000 1.0000 0.0000
usemtl M_Decal_White
s off
f 3/1/1 4/2/1 2/3/1 1/4/1
>>>>>>> parent of 9c6b686 (初次签入)
