<<<<<<< HEAD
version https://git-lfs.github.com/spec/v1
oid sha256:6f1f472ebc1fae58b2cbbf7e740aeac63b63dd863ae5099d7036b1ef3bc701e6
size 575
=======
# Blender v3.6.0 OBJ File: 'AllModules_Unreal.blend'
# www.blender.org
mtllib ShortWall_Metal2_Straight.mtl
o ShortWall_Metal2_Straight_Plane.227
v -1.999999 0.001852 2.000000
v -1.999999 2.001852 2.000000
v -1.999999 0.001851 0.000000
v -1.999999 2.001851 -0.000000
v -2.000000 0.001851 -2.000000
v -2.000000 2.001851 -2.000000
vt 0.863856 1.000526
vt 0.501447 1.000526
vt 0.501447 0.664098
vt 0.863856 0.664098
vt 0.139037 1.000526
vt 0.139037 0.664098
vn 1.0000 0.0000 -0.0000
usemtl MI_Trim_01
s 1
f 6/1/1 4/2/1 3/3/1 5/4/1
f 2/5/1 1/6/1 3/3/1 4/2/1
>>>>>>> parent of 9c6b686 (初次签入)
