<<<<<<< HEAD
version https://git-lfs.github.com/spec/v1
oid sha256:674a2a5ca8b0046b21d5f1a5ee73c91731b8744f0a0fd4614df6e31b40f420a9
size 587
=======
# Blender v3.6.0 OBJ File: 'AllModules_Unreal.blend'
# www.blender.org
mtllib ShortWall_MetalPlates_Straight.mtl
o ShortWall_MetalPlates_Straight_Plane.238
v -1.999999 0.001852 2.000000
v -2.000000 0.001851 -2.000000
v -1.999999 0.501852 2.000000
v -1.999999 1.000000 2.000000
v -2.000000 0.501851 -2.000000
v -2.000000 1.000000 -2.000000
vt 1.000000 0.590197
vt 1.000000 0.754417
vt -0.000000 0.754418
vt 0.000000 0.590198
vt 1.000000 0.753840
vt -0.000000 0.753840
vn 1.0000 0.0000 -0.0000
usemtl MI_Trim_02
s 1
f 3/1/1 1/2/1 2/3/1 5/4/1
f 4/5/1 3/1/1 5/4/1 6/6/1
>>>>>>> parent of 9c6b686 (初次签入)
