<<<<<<< HEAD
version https://git-lfs.github.com/spec/v1
oid sha256:4b3fea4dcf4187478e448e8faefeef23a52aeb8efd7ee3cfd923c1841322f0ee
size 584
=======
# Blender v3.6.0 OBJ File: 'AllModules_Unreal.blend'
# www.blender.org
mtllib ShortWall_DarkMetal2_Straight.mtl
o ShortWall_DarkMetal2_Straight_Plane.243
v -1.999999 0.001852 2.000000
v -1.999999 2.001852 2.000000
v -1.999999 0.000000 0.000000
v -1.999999 2.000000 -0.000000
v -2.000000 0.001851 -2.000000
v -2.000000 2.001851 -2.000000
vt 0.139037 0.480646
vt 0.139037 0.087058
vt 0.501447 0.087058
vt 0.501447 0.480646
vt 0.863856 0.480646
vt 0.863856 0.087058
vn 1.0000 -0.0000 -0.0000
usemtl MI_Trim_01
s 1
f 2/1/1 1/2/1 3/3/1 4/4/1
f 6/5/1 4/4/1 3/3/1 5/6/1
>>>>>>> parent of 9c6b686 (初次签入)
