<<<<<<< HEAD
version https://git-lfs.github.com/spec/v1
oid sha256:957241f0f679323c85675ef8a85c9616950ec891673166e3c2b4874d17ad6c68
size 793
=======
# Blender v3.6.0 OBJ File: 'AllModules_Unreal.blend'
# www.blender.org
mtllib TopSimple_Straight.mtl
o TopSimple_Straight_Plane.085
v -2.000000 3.000000 2.000000
v -2.000000 3.000000 -2.000000
v -2.000000 5.000000 2.000000
v -2.000000 5.000000 -2.000000
v -2.000000 3.632655 -2.000000
v -2.000000 3.632655 2.000000
v -2.000000 4.635870 -2.000000
v -2.000000 4.635870 2.000000
vt -0.247862 0.859251
vt 0.752138 0.859251
vt 0.752138 0.928852
vt -0.247862 0.928852
vt -0.247862 0.761577
vt 0.752138 0.761577
vt 0.752138 0.861537
vt -0.247862 0.861537
vt -0.247862 0.803704
vt 0.752138 0.803704
vt 0.752138 0.891805
vt -0.247862 0.891805
vn 1.0000 0.0000 0.0000
usemtl MI_Trim_02
s off
f 8/1/1 7/2/1 4/3/1 3/4/1
f 1/5/1 2/6/1 5/7/1 6/8/1
f 6/9/1 5/10/1 7/11/1 8/12/1
>>>>>>> parent of 9c6b686 (初次签入)
