<<<<<<< HEAD
version https://git-lfs.github.com/spec/v1
oid sha256:ebaa9c1cb3c2fa7f4d82aff39039054739b671a168e464f616a2e6f7f63d1b74
size 1355
=======
# Blender v3.6.0 OBJ File: 'AllModules_Unreal.blend'
# www.blender.org
mtllib Platform_DarkPlates.mtl
o Platform_DarkPlates_Plane.192
v 0.000000 0.000000 0.000000
v -2.000000 0.000000 0.000001
v -1.999999 0.000000 2.000000
v 0.000000 0.000000 1.999999
v -2.000001 0.000000 -2.000000
v 0.000000 0.000000 -2.000000
v -0.589982 0.000000 2.000000
v -0.589983 0.000000 0.000000
v -0.589984 0.000000 -2.000000
v 2.000000 0.000000 0.000001
v 1.999999 0.000000 2.000000
v 2.000001 0.000000 -2.000000
v 0.589982 0.000000 2.000000
v 0.589983 0.000000 0.000000
v 0.589984 0.000000 -2.000000
vt 0.146057 0.413972
vt 0.146057 0.286757
vt 0.494570 0.286757
vt 0.494570 0.413972
vt 0.843084 0.413973
vt 0.843084 0.286757
vt 0.976671 0.472373
vt 0.500000 0.472373
vt 0.500000 0.097171
vt 0.976671 0.097171
vt 0.023329 0.472373
vt 0.023329 0.097171
vt 0.146057 0.159542
vt 0.494570 0.159542
vt 0.843084 0.159542
vt 0.976671 0.097171
vt 0.976671 0.472373
vt 0.500000 0.472373
vt 0.500000 0.097171
vt 0.023329 0.097171
vt 0.023329 0.472373
vn 0.0000 1.0000 0.0000
usemtl MI_Trim_01
s off
f 7/1/1 4/2/1 1/3/1 8/4/1
f 9/5/1 8/4/1 1/3/1 6/6/1
f 5/7/1 2/8/1 8/9/1 9/10/1
f 3/11/1 7/12/1 8/9/1 2/8/1
f 13/13/1 14/14/1 1/3/1 4/2/1
f 15/15/1 6/6/1 1/3/1 14/14/1
f 12/16/1 15/17/1 14/18/1 10/19/1
f 11/20/1 10/19/1 14/18/1 13/21/1
>>>>>>> parent of 9c6b686 (初次签入)
